<svg xmlns="http://www.w3.org/2000/svg" width="33" height="32" fill="none" viewBox="0 0 33 32">
  <path fill="#353D34" fill-rule="evenodd" d="M13.058 3.894A11.655 11.655 0 0 1 19.931.55c1.585-.19 2.204 1.657 1.075 2.786l-3.83 3.83a2 2 0 0 0-.578 1.584l.498 5.836a2 2 0 0 0 1.823 1.823l5.836.498a2 2 0 0 0 1.584-.578l3.83-3.83c1.13-1.13 2.977-.51 2.786 1.075a11.655 11.655 0 0 1-3.344 6.873c-3.53 3.53-8.754 4.334-13.056 2.411-.849-.38-1.867-.28-2.524.378l-7.78 7.78a2 2 0 0 1-2.829 0l-2.291-2.29a2 2 0 0 1 0-2.829l8.411-8.411c.567-.567.725-1.414.511-2.187a11.7 11.7 0 0 1 3.005-11.405Z" clip-rule="evenodd"/>
</svg>
