<svg xmlns="http://www.w3.org/2000/svg" width="994" height="1000" fill="none" viewBox="0 0 994 1000">
  <path fill="#F8EDE3" stroke="#000" stroke-width="5" d="M149.745 401.88c42.292 42.291 129.482 104.784 214.994 147.802 42.753 21.508 84.929 38.066 120.754 44.839 35.977 6.801 64.737 3.591 81.607-13.279 16.89-16.89 20.586-46.184 14.541-82.939-6.018-36.594-21.569-79.791-42.06-123.557-40.992-87.553-101.445-176.745-143.701-219.001-84.371-84.37-209.413-95.007-279.348-25.071-69.804 69.804-51.32 186.672 33.213 271.206Z"/>
  <path stroke="#000" stroke-width="5" d="M114.055 129.691 559.59 571.409"/>
  <path fill="#F8EDE3" stroke="#000" stroke-width="5" d="m555.728 577.236-29.386 18.67L823.17 892.733c6.834 6.834 17.914 6.834 24.749 0l30.232-30.232c6.834-6.834 6.834-17.914 0-24.749L581.323 540.925l-18.669 29.386a22.501 22.501 0 0 1-6.926 6.925Z"/>
  <path stroke="#000" stroke-linecap="round" stroke-width="5" d="M118.102 134.276c76.646 5.127 248.12 57.747 320.841 227.215M119.266 135.253c13.144 67.759 68.629 213.75 185.417 255.637"/>
</svg>
