<?xml version="1.0" encoding="UTF-8" standalone="no" ?>
<!DOCTYPE svg PUBLIC "-//W3C//DTD SVG 1.1//EN" "http://www.w3.org/Graphics/SVG/1.1/DTD/svg11.dtd">
<svg xmlns="http://www.w3.org/2000/svg" xmlns:xlink="http://www.w3.org/1999/xlink" version="1.1" width="1080" height="1080" viewBox="0 0 1080 1080" xml:space="preserve">
<desc>Created with Fabric.js 5.2.4</desc>
<defs>
</defs>
<rect x="0" y="0" width="100%" height="100%" fill="transparent"></rect>
<g transform="matrix(1 0 0 1 540 540)" id="99d52b0a-09eb-4a63-897a-fc606692045c"  >
<rect style="stroke: none; stroke-width: 1; stroke-dasharray: none; stroke-linecap: butt; stroke-dashoffset: 0; stroke-linejoin: miter; stroke-miterlimit: 4; fill: rgb(255,255,255); fill-rule: nonzero; opacity: 1; visibility: hidden;" vector-effect="non-scaling-stroke"  x="-540" y="-540" rx="0" ry="0" width="1080" height="1080" />
</g>
<g transform="matrix(1 0 0 1 540 540)" id="6a599b94-3207-49b0-8fa8-5bd6fa32ec3d"  >
</g>
<g transform="matrix(29.58 0 0 29.58 540 540)"  >
<g style="" vector-effect="non-scaling-stroke"   >
		<g transform="matrix(1 0 0 1 0.5 -8.25)"  >
<circle style="stroke: none; stroke-width: 1; stroke-dasharray: none; stroke-linecap: butt; stroke-dashoffset: 0; stroke-linejoin: miter; stroke-miterlimit: 4; fill: rgb(53,61,52); fill-rule: nonzero; opacity: 1;" vector-effect="non-scaling-stroke"  cx="0" cy="0" r="8" />
</g>
		<g transform="matrix(1 0 0 1 0 9)"  >
<path style="stroke: none; stroke-width: 1; stroke-dasharray: none; stroke-linecap: butt; stroke-dashoffset: 0; stroke-linejoin: miter; stroke-miterlimit: 4; fill: rgb(53,61,52); fill-rule: nonzero; opacity: 1;" vector-effect="non-scaling-stroke"  transform=" translate(-12.5, -25.25)" d="M 25 32.5 C 25 30.596 24.677 28.71 24.049 26.951 C 23.442615802234066 25.229694531229597 22.523911083026185 23.63501298172633 21.338999999999995 22.246999999999996 C 20.179 20.901 18.799999999999997 19.832 17.284 19.104 C 15.792620876788826 18.380992308065025 14.157389099352336 18.003631128656604 12.5 18 C 10.842603000501517 18.003562424146377 9.207356117995356 18.380927089340105 7.715999999999994 19.104000000000003 C 6.2 19.832 4.822 20.901 3.6610000000000005 22.247 C 2.4761076900686874 23.635026232701545 1.5574050779539776 25.22970412472649 0.9509999999999978 26.951000000000008 C 0.31912457973892006 28.732703451148613 -0.0025369190732942304 30.609569546741646 0 32.50000000000001 L 25 32.5 Z" stroke-linecap="round" />
</g>
</g>
</g>
</svg>