<svg xmlns="http://www.w3.org/2000/svg" width="21" height="21" fill="none" viewBox="0 0 21 21">
  <mask id="a" fill="#fff">
    <path d="M17.452 15.79c.53.341.688 1.052.29 1.54a10 10 0 1 1-3.328-15.303c.566.278.717.99.376 1.521-.34.53-1.044.675-1.619.416a7.717 7.717 0 1 0 2.635 12.12c.415-.474 1.116-.634 1.646-.294Z"/>
  </mask>
  <path stroke="#353D34" stroke-width="6" d="M17.452 15.79c.53.341.688 1.052.29 1.54a10 10 0 1 1-3.328-15.303c.566.278.717.99.376 1.521-.34.53-1.044.675-1.619.416a7.717 7.717 0 1 0 2.635 12.12c.415-.474 1.116-.634 1.646-.294Z" mask="url(#a)"/>
  <path fill="#353D34" d="M15.134 1.5a1 1 0 0 1 1.732 0L19.464 6a1 1 0 0 1-.866 1.5h-5.196a1 1 0 0 1-.866-1.5l2.598-4.5Z"/>
</svg>
